<svg width="3167pt" height="1581pt" viewBox="0.00 0.00 3167.00 1580.80" xmlns="http://www.w3.org/2000/svg" xmlns:xlink="http://www.w3.org/1999/xlink">
<g id="graph1" class="graph" transform="scale(1 1) rotate(0) translate(4 1576.8)">
<title>AST</title>
<polygon fill="white" stroke="white" points="-4,5 -4,-1576.8 3164,-1576.8 3164,5 -4,5"></polygon>
<text text-anchor="middle" x="1579.5" y="-8.2" font-family="Times,serif" font-size="14.00">AST_Graph.gv</text>
<!-- node0 -->
<g id="node1" class="node"><title>node0</title>
<ellipse fill="none" stroke="black" cx="1000" cy="-1554.8" rx="90.1382" ry="18"></ellipse>
<text text-anchor="middle" x="1000" y="-1550.6" font-family="Times,serif" font-size="14.00">PROGRAM_NODE</text>
</g>
<!-- node1 -->
<g id="node2" class="node"><title>node1</title>
<ellipse fill="none" stroke="black" cx="1000" cy="-1482.8" rx="146.604" ry="18"></ellipse>
<text text-anchor="middle" x="1000" y="-1478.6" font-family="Times,serif" font-size="14.00">VARIABLE_DECL_LIST_NODE</text>
</g>
<!-- node0&#45;&gt;node1 -->
<g id="edge102" class="edge"><title>node0-&gt;node1</title>
<path fill="none" stroke="black" stroke-width="2" d="M1000,-1536.5C1000,-1528.78 1000,-1519.51 1000,-1510.91"></path>
<polygon fill="black" stroke="black" points="1003.5,-1510.9 1000,-1500.9 996.5,-1510.9 1003.5,-1510.9"></polygon>
</g>
<!-- node2 -->
<g id="node3" class="node"><title>node2</title>
<ellipse fill="none" stroke="black" cx="789" cy="-1410.8" rx="192.385" ry="18"></ellipse>
<text text-anchor="middle" x="789" y="-1406.6" font-family="Times,serif" font-size="14.00">DECLARATION_NODE VARIABLE_DECL</text>
</g>
<!-- node1&#45;&gt;node2 -->
<g id="edge26" class="edge"><title>node1-&gt;node2</title>
<path fill="none" stroke="black" stroke-width="2" d="M951.592,-1465.74C920.939,-1455.57 881.085,-1442.35 848.506,-1431.54"></path>
<polygon fill="black" stroke="black" points="849.241,-1428.1 838.647,-1428.27 847.036,-1434.74 849.241,-1428.1"></polygon>
</g>
<!-- node15 -->
<g id="node29" class="node"><title>node15</title>
<ellipse fill="none" stroke="black" cx="1212" cy="-1410.8" rx="192.385" ry="18"></ellipse>
<text text-anchor="middle" x="1212" y="-1406.6" font-family="Times,serif" font-size="14.00">DECLARATION_NODE FUNCTION_DECL</text>
</g>
<!-- node1&#45;&gt;node15 -->
<g id="edge100" class="edge"><title>node1-&gt;node15</title>
<path fill="none" stroke="black" stroke-dasharray="5,2" d="M1048.64,-1465.74C1079.44,-1455.57 1119.48,-1442.35 1152.21,-1431.54"></path>
<polygon fill="black" stroke="black" points="1153.72,-1434.73 1162.12,-1428.27 1151.52,-1428.08 1153.72,-1434.73"></polygon>
</g>
<!-- node3 -->
<g id="node4" class="node"><title>node3</title>
<ellipse fill="none" stroke="black" cx="333" cy="-1338.8" rx="167.473" ry="18"></ellipse>
<text text-anchor="middle" x="333" y="-1334.6" font-family="Times,serif" font-size="14.00">IDENTIFIER_NODE int NORMAL_ID</text>
</g>
<!-- node2&#45;&gt;node3 -->
<g id="edge4" class="edge"><title>node2-&gt;node3</title>
<path fill="none" stroke="black" stroke-width="2" d="M693.407,-1395.13C617.801,-1383.52 512.468,-1367.35 435.197,-1355.49"></path>
<polygon fill="black" stroke="black" points="435.38,-1351.98 424.964,-1353.92 434.317,-1358.89 435.38,-1351.98"></polygon>
</g>
<!-- node5 -->
<g id="node8" class="node"><title>node5</title>
<ellipse fill="none" stroke="black" cx="789" cy="-1338.8" rx="192.385" ry="18"></ellipse>
<text text-anchor="middle" x="789" y="-1334.6" font-family="Times,serif" font-size="14.00">DECLARATION_NODE VARIABLE_DECL</text>
</g>
<!-- node2&#45;&gt;node5 -->
<g id="edge24" class="edge"><title>node2-&gt;node5</title>
<path fill="none" stroke="black" stroke-dasharray="5,2" d="M789,-1392.5C789,-1384.78 789,-1375.51 789,-1366.91"></path>
<polygon fill="black" stroke="black" points="792.5,-1366.9 789,-1356.9 785.5,-1366.9 792.5,-1366.9"></polygon>
</g>
<!-- node4 -->
<g id="node5" class="node"><title>node4</title>
<ellipse fill="none" stroke="black" cx="177" cy="-1266.8" rx="176.958" ry="18"></ellipse>
<text text-anchor="middle" x="177" y="-1262.6" font-family="Times,serif" font-size="14.00">IDENTIFIER_NODE ABC NORMAL_ID</text>
</g>
<!-- node3&#45;&gt;node4 -->
<g id="edge2" class="edge"><title>node3-&gt;node4</title>
<path fill="none" stroke="black" stroke-dasharray="5,2" d="M296.03,-1321.21C274.332,-1311.47 246.712,-1299.08 223.542,-1288.68"></path>
<polygon fill="black" stroke="black" points="224.802,-1285.41 214.245,-1284.51 221.936,-1291.8 224.802,-1285.41"></polygon>
</g>
<!-- node6 -->
<g id="node9" class="node"><title>node6</title>
<ellipse fill="none" stroke="black" cx="547" cy="-1266.8" rx="175.226" ry="18"></ellipse>
<text text-anchor="middle" x="547" y="-1262.6" font-family="Times,serif" font-size="14.00">IDENTIFIER_NODE float NORMAL_ID</text>
</g>
<!-- node5&#45;&gt;node6 -->
<g id="edge16" class="edge"><title>node5-&gt;node6</title>
<path fill="none" stroke="black" stroke-width="2" d="M732.872,-1321.56C696.983,-1311.18 650.285,-1297.68 612.674,-1286.8"></path>
<polygon fill="black" stroke="black" points="613.402,-1283.36 602.824,-1283.95 611.457,-1290.09 613.402,-1283.36"></polygon>
</g>
<!-- node12 -->
<g id="node21" class="node"><title>node12</title>
<ellipse fill="none" stroke="black" cx="908" cy="-1266.8" rx="167.381" ry="18"></ellipse>
<text text-anchor="middle" x="908" y="-1262.6" font-family="Times,serif" font-size="14.00">DECLARATION_NODE TYPE_DECL</text>
</g>
<!-- node5&#45;&gt;node12 -->
<g id="edge22" class="edge"><title>node5-&gt;node12</title>
<path fill="none" stroke="black" stroke-dasharray="5,2" d="M817.807,-1320.85C833.739,-1311.48 853.715,-1299.73 870.815,-1289.67"></path>
<polygon fill="black" stroke="black" points="872.614,-1292.68 879.459,-1284.59 869.065,-1286.64 872.614,-1292.68"></polygon>
</g>
<!-- node7 -->
<g id="node10" class="node"><title>node7</title>
<ellipse fill="none" stroke="black" cx="536" cy="-1194.8" rx="183.915" ry="18"></ellipse>
<text text-anchor="middle" x="536" y="-1190.6" font-family="Times,serif" font-size="14.00">IDENTIFIER_NODE ABCD NORMAL_ID</text>
</g>
<!-- node6&#45;&gt;node7 -->
<g id="edge14" class="edge"><title>node6-&gt;node7</title>
<path fill="none" stroke="black" stroke-dasharray="5,2" d="M544.281,-1248.5C543.069,-1240.78 541.612,-1231.51 540.261,-1222.91"></path>
<polygon fill="black" stroke="black" points="543.698,-1222.24 538.688,-1212.9 536.783,-1223.33 543.698,-1222.24"></polygon>
</g>
<!-- node8 -->
<g id="node11" class="node"><title>node8</title>
<ellipse fill="none" stroke="black" cx="531" cy="-1122.8" rx="185.289" ry="18"></ellipse>
<text text-anchor="middle" x="531" y="-1118.6" font-family="Times,serif" font-size="14.00">IDENTIFIER_NODE AAA WITH_INIT_ID</text>
</g>
<!-- node7&#45;&gt;node8 -->
<g id="edge12" class="edge"><title>node7-&gt;node8</title>
<path fill="none" stroke="black" stroke-dasharray="5,2" d="M534.764,-1176.5C534.213,-1168.78 533.551,-1159.51 532.937,-1150.91"></path>
<polygon fill="black" stroke="black" points="536.425,-1150.63 532.222,-1140.9 529.443,-1151.13 536.425,-1150.63"></polygon>
</g>
<!-- node9 -->
<g id="node12" class="node"><title>node9</title>
<ellipse fill="none" stroke="black" cx="354" cy="-1050.8" rx="150.247" ry="18"></ellipse>
<text text-anchor="middle" x="354" y="-1046.6" font-family="Times,serif" font-size="14.00">CONST_VALUE_NODE 4.000000</text>
</g>
<!-- node8&#45;&gt;node9 -->
<g id="edge6" class="edge"><title>node8-&gt;node9</title>
<path fill="none" stroke="black" stroke-width="2" d="M489.053,-1105.21C463.833,-1095.24 431.562,-1082.47 404.89,-1071.93"></path>
<polygon fill="black" stroke="black" points="405.926,-1068.57 395.34,-1068.15 403.352,-1075.08 405.926,-1068.57"></polygon>
</g>
<!-- node10 -->
<g id="node14" class="node"><title>node10</title>
<ellipse fill="none" stroke="black" cx="708" cy="-1050.8" rx="185.289" ry="18"></ellipse>
<text text-anchor="middle" x="708" y="-1046.6" font-family="Times,serif" font-size="14.00">IDENTIFIER_NODE KKK WITH_INIT_ID</text>
</g>
<!-- node8&#45;&gt;node10 -->
<g id="edge10" class="edge"><title>node8-&gt;node10</title>
<path fill="none" stroke="black" stroke-dasharray="5,2" d="M572.947,-1105.21C597.985,-1095.31 629.973,-1082.66 656.532,-1072.15"></path>
<polygon fill="black" stroke="black" points="658.036,-1075.32 666.048,-1068.39 655.462,-1068.81 658.036,-1075.32"></polygon>
</g>
<!-- node11 -->
<g id="node15" class="node"><title>node11</title>
<ellipse fill="none" stroke="black" cx="708" cy="-978.8" rx="150.247" ry="18"></ellipse>
<text text-anchor="middle" x="708" y="-974.6" font-family="Times,serif" font-size="14.00">CONST_VALUE_NODE 5.500000</text>
</g>
<!-- node10&#45;&gt;node11 -->
<g id="edge8" class="edge"><title>node10-&gt;node11</title>
<path fill="none" stroke="black" stroke-width="2" d="M708,-1032.5C708,-1024.78 708,-1015.51 708,-1006.91"></path>
<polygon fill="black" stroke="black" points="711.5,-1006.9 708,-996.904 704.5,-1006.9 711.5,-1006.9"></polygon>
</g>
<!-- node13 -->
<g id="node22" class="node"><title>node13</title>
<ellipse fill="none" stroke="black" cx="919" cy="-1194.8" rx="175.226" ry="18"></ellipse>
<text text-anchor="middle" x="919" y="-1190.6" font-family="Times,serif" font-size="14.00">IDENTIFIER_NODE float NORMAL_ID</text>
</g>
<!-- node12&#45;&gt;node13 -->
<g id="edge20" class="edge"><title>node12-&gt;node13</title>
<path fill="none" stroke="black" stroke-width="2" d="M910.719,-1248.5C911.931,-1240.78 913.388,-1231.51 914.739,-1222.91"></path>
<polygon fill="black" stroke="black" points="918.217,-1223.33 916.312,-1212.9 911.302,-1222.24 918.217,-1223.33"></polygon>
</g>
<!-- node14 -->
<g id="node23" class="node"><title>node14</title>
<ellipse fill="none" stroke="black" cx="930" cy="-1122.8" rx="195.302" ry="18"></ellipse>
<text text-anchor="middle" x="930" y="-1118.6" font-family="Times,serif" font-size="14.00">IDENTIFIER_NODE GFLOAT NORMAL_ID</text>
</g>
<!-- node13&#45;&gt;node14 -->
<g id="edge18" class="edge"><title>node13-&gt;node14</title>
<path fill="none" stroke="black" stroke-dasharray="5,2" d="M921.719,-1176.5C922.931,-1168.78 924.388,-1159.51 925.739,-1150.91"></path>
<polygon fill="black" stroke="black" points="929.217,-1151.33 927.312,-1140.9 922.302,-1150.24 929.217,-1151.33"></polygon>
</g>
<!-- node16 -->
<g id="node30" class="node"><title>node16</title>
<ellipse fill="none" stroke="black" cx="1251" cy="-1338.8" rx="167.473" ry="18"></ellipse>
<text text-anchor="middle" x="1251" y="-1334.6" font-family="Times,serif" font-size="14.00">IDENTIFIER_NODE int NORMAL_ID</text>
</g>
<!-- node15&#45;&gt;node16 -->
<g id="edge98" class="edge"><title>node15-&gt;node16</title>
<path fill="none" stroke="black" stroke-width="2" d="M1221.64,-1392.5C1226.13,-1384.44 1231.56,-1374.69 1236.52,-1365.78"></path>
<polygon fill="black" stroke="black" points="1239.66,-1367.34 1241.47,-1356.9 1233.55,-1363.94 1239.66,-1367.34"></polygon>
</g>
<!-- node17 -->
<g id="node31" class="node"><title>node17</title>
<ellipse fill="none" stroke="black" cx="1271" cy="-1266.8" rx="176.147" ry="18"></ellipse>
<text text-anchor="middle" x="1271" y="-1262.6" font-family="Times,serif" font-size="14.00">IDENTIFIER_NODE main NORMAL_ID</text>
</g>
<!-- node16&#45;&gt;node17 -->
<g id="edge96" class="edge"><title>node16-&gt;node17</title>
<path fill="none" stroke="black" stroke-dasharray="5,2" d="M1255.94,-1320.5C1258.17,-1312.7 1260.85,-1303.31 1263.33,-1294.63"></path>
<polygon fill="black" stroke="black" points="1266.73,-1295.48 1266.11,-1284.9 1260,-1293.56 1266.73,-1295.48"></polygon>
</g>
<!-- node18 -->
<g id="node32" class="node"><title>node18</title>
<ellipse fill="none" stroke="black" cx="1271" cy="-1194.8" rx="102.336" ry="18"></ellipse>
<text text-anchor="middle" x="1271" y="-1190.6" font-family="Times,serif" font-size="14.00">PARAM_LIST_NODE</text>
</g>
<!-- node17&#45;&gt;node18 -->
<g id="edge94" class="edge"><title>node17-&gt;node18</title>
<path fill="none" stroke="black" stroke-dasharray="5,2" d="M1271,-1248.5C1271,-1240.78 1271,-1231.51 1271,-1222.91"></path>
<polygon fill="black" stroke="black" points="1274.5,-1222.9 1271,-1212.9 1267.5,-1222.9 1274.5,-1222.9"></polygon>
</g>
<!-- node19 -->
<g id="node33" class="node"><title>node19</title>
<ellipse fill="none" stroke="black" cx="1271" cy="-1122.8" rx="75.1019" ry="18"></ellipse>
<text text-anchor="middle" x="1271" y="-1118.6" font-family="Times,serif" font-size="14.00">BLOCK_NODE</text>
</g>
<!-- node18&#45;&gt;node19 -->
<g id="edge92" class="edge"><title>node18-&gt;node19</title>
<path fill="none" stroke="black" stroke-dasharray="5,2" d="M1271,-1176.5C1271,-1168.78 1271,-1159.51 1271,-1150.91"></path>
<polygon fill="black" stroke="black" points="1274.5,-1150.9 1271,-1140.9 1267.5,-1150.9 1274.5,-1150.9"></polygon>
</g>
<!-- node20 -->
<g id="node34" class="node"><title>node20</title>
<ellipse fill="none" stroke="black" cx="1271" cy="-1050.8" rx="146.604" ry="18"></ellipse>
<text text-anchor="middle" x="1271" y="-1046.6" font-family="Times,serif" font-size="14.00">VARIABLE_DECL_LIST_NODE</text>
</g>
<!-- node19&#45;&gt;node20 -->
<g id="edge90" class="edge"><title>node19-&gt;node20</title>
<path fill="none" stroke="black" stroke-width="2" d="M1271,-1104.5C1271,-1096.78 1271,-1087.51 1271,-1078.91"></path>
<polygon fill="black" stroke="black" points="1274.5,-1078.9 1271,-1068.9 1267.5,-1078.9 1274.5,-1078.9"></polygon>
</g>
<!-- node21 -->
<g id="node35" class="node"><title>node21</title>
<ellipse fill="none" stroke="black" cx="1271" cy="-978.8" rx="167.381" ry="18"></ellipse>
<text text-anchor="middle" x="1271" y="-974.6" font-family="Times,serif" font-size="14.00">DECLARATION_NODE TYPE_DECL</text>
</g>
<!-- node20&#45;&gt;node21 -->
<g id="edge88" class="edge"><title>node20-&gt;node21</title>
<path fill="none" stroke="black" stroke-width="2" d="M1271,-1032.5C1271,-1024.78 1271,-1015.51 1271,-1006.91"></path>
<polygon fill="black" stroke="black" points="1274.5,-1006.9 1271,-996.904 1267.5,-1006.9 1274.5,-1006.9"></polygon>
</g>
<!-- node22 -->
<g id="node36" class="node"><title>node22</title>
<ellipse fill="none" stroke="black" cx="1089" cy="-906.8" rx="167.473" ry="18"></ellipse>
<text text-anchor="middle" x="1089" y="-902.6" font-family="Times,serif" font-size="14.00">IDENTIFIER_NODE int NORMAL_ID</text>
</g>
<!-- node21&#45;&gt;node22 -->
<g id="edge34" class="edge"><title>node21-&gt;node22</title>
<path fill="none" stroke="black" stroke-width="2" d="M1228.33,-961.388C1202.3,-951.375 1168.83,-938.503 1141.22,-927.884"></path>
<polygon fill="black" stroke="black" points="1142.31,-924.553 1131.72,-924.23 1139.8,-931.087 1142.31,-924.553"></polygon>
</g>
<!-- node26 -->
<g id="node44" class="node"><title>node26</title>
<ellipse fill="none" stroke="black" cx="1454" cy="-906.8" rx="167.381" ry="18"></ellipse>
<text text-anchor="middle" x="1454" y="-902.6" font-family="Times,serif" font-size="14.00">DECLARATION_NODE TYPE_DECL</text>
</g>
<!-- node21&#45;&gt;node26 -->
<g id="edge86" class="edge"><title>node21-&gt;node26</title>
<path fill="none" stroke="black" stroke-dasharray="5,2" d="M1313.91,-961.388C1340.08,-951.375 1373.73,-938.503 1401.5,-927.884"></path>
<polygon fill="black" stroke="black" points="1402.96,-931.072 1411.05,-924.23 1400.46,-924.534 1402.96,-931.072"></polygon>
</g>
<!-- node23 -->
<g id="node37" class="node"><title>node23</title>
<ellipse fill="none" stroke="black" cx="1078" cy="-834.8" rx="173.308" ry="18"></ellipse>
<text text-anchor="middle" x="1078" y="-830.6" font-family="Times,serif" font-size="14.00">IDENTIFIER_NODE INT NORMAL_ID</text>
</g>
<!-- node22&#45;&gt;node23 -->
<g id="edge32" class="edge"><title>node22-&gt;node23</title>
<path fill="none" stroke="black" stroke-dasharray="5,2" d="M1086.28,-888.497C1085.07,-880.783 1083.61,-871.512 1082.26,-862.912"></path>
<polygon fill="black" stroke="black" points="1085.7,-862.24 1080.69,-852.904 1078.78,-863.326 1085.7,-862.24"></polygon>
</g>
<!-- node24 -->
<g id="node38" class="node"><title>node24</title>
<ellipse fill="none" stroke="black" cx="1069" cy="-762.8" rx="178.051" ry="18"></ellipse>
<text text-anchor="middle" x="1069" y="-758.6" font-family="Times,serif" font-size="14.00">IDENTIFIER_NODE INT2 NORMAL_ID</text>
</g>
<!-- node23&#45;&gt;node24 -->
<g id="edge30" class="edge"><title>node23-&gt;node24</title>
<path fill="none" stroke="black" stroke-dasharray="5,2" d="M1075.78,-816.497C1074.78,-808.783 1073.59,-799.512 1072.49,-790.912"></path>
<polygon fill="black" stroke="black" points="1075.95,-790.376 1071.2,-780.904 1069,-791.269 1075.95,-790.376"></polygon>
</g>
<!-- node25 -->
<g id="node39" class="node"><title>node25</title>
<ellipse fill="none" stroke="black" cx="1069" cy="-690.8" rx="178.051" ry="18"></ellipse>
<text text-anchor="middle" x="1069" y="-686.6" font-family="Times,serif" font-size="14.00">IDENTIFIER_NODE INT3 NORMAL_ID</text>
</g>
<!-- node24&#45;&gt;node25 -->
<g id="edge28" class="edge"><title>node24-&gt;node25</title>
<path fill="none" stroke="black" stroke-dasharray="5,2" d="M1069,-744.497C1069,-736.783 1069,-727.512 1069,-718.912"></path>
<polygon fill="black" stroke="black" points="1072.5,-718.904 1069,-708.904 1065.5,-718.904 1072.5,-718.904"></polygon>
</g>
<!-- node27 -->
<g id="node45" class="node"><title>node27</title>
<ellipse fill="none" stroke="black" cx="1454" cy="-834.8" rx="175.226" ry="18"></ellipse>
<text text-anchor="middle" x="1454" y="-830.6" font-family="Times,serif" font-size="14.00">IDENTIFIER_NODE float NORMAL_ID</text>
</g>
<!-- node26&#45;&gt;node27 -->
<g id="edge38" class="edge"><title>node26-&gt;node27</title>
<path fill="none" stroke="black" stroke-width="2" d="M1454,-888.497C1454,-880.783 1454,-871.512 1454,-862.912"></path>
<polygon fill="black" stroke="black" points="1457.5,-862.904 1454,-852.904 1450.5,-862.904 1457.5,-862.904"></polygon>
</g>
<!-- node29 -->
<g id="node49" class="node"><title>node29</title>
<ellipse fill="none" stroke="black" cx="1835" cy="-834.8" rx="167.381" ry="18"></ellipse>
<text text-anchor="middle" x="1835" y="-830.6" font-family="Times,serif" font-size="14.00">DECLARATION_NODE TYPE_DECL</text>
</g>
<!-- node26&#45;&gt;node29 -->
<g id="edge84" class="edge"><title>node26-&gt;node29</title>
<path fill="none" stroke="black" stroke-dasharray="5,2" d="M1534.8,-890.955C1596.17,-879.679 1680.59,-864.169 1744.28,-852.468"></path>
<polygon fill="black" stroke="black" points="1745.11,-855.873 1754.32,-850.624 1743.85,-848.989 1745.11,-855.873"></polygon>
</g>
<!-- node28 -->
<g id="node46" class="node"><title>node28</title>
<ellipse fill="none" stroke="black" cx="1454" cy="-762.8" rx="188.344" ry="18"></ellipse>
<text text-anchor="middle" x="1454" y="-758.6" font-family="Times,serif" font-size="14.00">IDENTIFIER_NODE FLOAT NORMAL_ID</text>
</g>
<!-- node27&#45;&gt;node28 -->
<g id="edge36" class="edge"><title>node27-&gt;node28</title>
<path fill="none" stroke="black" stroke-dasharray="5,2" d="M1454,-816.497C1454,-808.783 1454,-799.512 1454,-790.912"></path>
<polygon fill="black" stroke="black" points="1457.5,-790.904 1454,-780.904 1450.5,-790.904 1457.5,-790.904"></polygon>
</g>
<!-- node30 -->
<g id="node50" class="node"><title>node30</title>
<ellipse fill="none" stroke="black" cx="1835" cy="-762.8" rx="174.433" ry="18"></ellipse>
<text text-anchor="middle" x="1835" y="-758.6" font-family="Times,serif" font-size="14.00">IDENTIFIER_NODE void NORMAL_ID</text>
</g>
<!-- node29&#45;&gt;node30 -->
<g id="edge42" class="edge"><title>node29-&gt;node30</title>
<path fill="none" stroke="black" stroke-width="2" d="M1835,-816.497C1835,-808.783 1835,-799.512 1835,-790.912"></path>
<polygon fill="black" stroke="black" points="1838.5,-790.904 1835,-780.904 1831.5,-790.904 1838.5,-790.904"></polygon>
</g>
<!-- node32 -->
<g id="node54" class="node"><title>node32</title>
<ellipse fill="none" stroke="black" cx="2202" cy="-762.8" rx="167.381" ry="18"></ellipse>
<text text-anchor="middle" x="2202" y="-758.6" font-family="Times,serif" font-size="14.00">DECLARATION_NODE TYPE_DECL</text>
</g>
<!-- node29&#45;&gt;node32 -->
<g id="edge82" class="edge"><title>node29-&gt;node32</title>
<path fill="none" stroke="black" stroke-dasharray="5,2" d="M1913.28,-818.869C1972.01,-807.668 2052.45,-792.324 2113.51,-780.678"></path>
<polygon fill="black" stroke="black" points="2114.36,-784.08 2123.52,-778.768 2113.05,-777.204 2114.36,-784.08"></polygon>
</g>
<!-- node31 -->
<g id="node51" class="node"><title>node31</title>
<ellipse fill="none" stroke="black" cx="1828" cy="-690.8" rx="181.373" ry="18"></ellipse>
<text text-anchor="middle" x="1828" y="-686.6" font-family="Times,serif" font-size="14.00">IDENTIFIER_NODE VOID NORMAL_ID</text>
</g>
<!-- node30&#45;&gt;node31 -->
<g id="edge40" class="edge"><title>node30-&gt;node31</title>
<path fill="none" stroke="black" stroke-dasharray="5,2" d="M1833.27,-744.497C1832.5,-736.783 1831.57,-727.512 1830.71,-718.912"></path>
<polygon fill="black" stroke="black" points="1834.19,-718.506 1829.71,-708.904 1827.22,-719.203 1834.19,-718.506"></polygon>
</g>
<!-- node33 -->
<g id="node55" class="node"><title>node33</title>
<ellipse fill="none" stroke="black" cx="2202" cy="-690.8" rx="174.433" ry="18"></ellipse>
<text text-anchor="middle" x="2202" y="-686.6" font-family="Times,serif" font-size="14.00">IDENTIFIER_NODE void NORMAL_ID</text>
</g>
<!-- node32&#45;&gt;node33 -->
<g id="edge48" class="edge"><title>node32-&gt;node33</title>
<path fill="none" stroke="black" stroke-width="2" d="M2202,-744.497C2202,-736.783 2202,-727.512 2202,-718.912"></path>
<polygon fill="black" stroke="black" points="2205.5,-718.904 2202,-708.904 2198.5,-718.904 2205.5,-718.904"></polygon>
</g>
<!-- node36 -->
<g id="node61" class="node"><title>node36</title>
<ellipse fill="none" stroke="black" cx="2587" cy="-690.8" rx="192.385" ry="18"></ellipse>
<text text-anchor="middle" x="2587" y="-686.6" font-family="Times,serif" font-size="14.00">DECLARATION_NODE VARIABLE_DECL</text>
</g>
<!-- node32&#45;&gt;node36 -->
<g id="edge80" class="edge"><title>node32-&gt;node36</title>
<path fill="none" stroke="black" stroke-dasharray="5,2" d="M2283.18,-747.04C2344.54,-735.884 2428.88,-720.549 2493.14,-708.866"></path>
<polygon fill="black" stroke="black" points="2494.06,-712.256 2503.27,-707.023 2492.81,-705.369 2494.06,-712.256"></polygon>
</g>
<!-- node34 -->
<g id="node56" class="node"><title>node34</title>
<ellipse fill="none" stroke="black" cx="2202" cy="-618.8" rx="186.116" ry="18"></ellipse>
<text text-anchor="middle" x="2202" y="-614.6" font-family="Times,serif" font-size="14.00">IDENTIFIER_NODE VOID2 NORMAL_ID</text>
</g>
<!-- node33&#45;&gt;node34 -->
<g id="edge46" class="edge"><title>node33-&gt;node34</title>
<path fill="none" stroke="black" stroke-dasharray="5,2" d="M2202,-672.497C2202,-664.783 2202,-655.512 2202,-646.912"></path>
<polygon fill="black" stroke="black" points="2205.5,-646.904 2202,-636.904 2198.5,-646.904 2205.5,-646.904"></polygon>
</g>
<!-- node35 -->
<g id="node57" class="node"><title>node35</title>
<ellipse fill="none" stroke="black" cx="2202" cy="-546.8" rx="186.116" ry="18"></ellipse>
<text text-anchor="middle" x="2202" y="-542.6" font-family="Times,serif" font-size="14.00">IDENTIFIER_NODE VOID3 NORMAL_ID</text>
</g>
<!-- node34&#45;&gt;node35 -->
<g id="edge44" class="edge"><title>node34-&gt;node35</title>
<path fill="none" stroke="black" stroke-dasharray="5,2" d="M2202,-600.497C2202,-592.783 2202,-583.512 2202,-574.912"></path>
<polygon fill="black" stroke="black" points="2205.5,-574.904 2202,-564.904 2198.5,-574.904 2205.5,-574.904"></polygon>
</g>
<!-- node37 -->
<g id="node62" class="node"><title>node37</title>
<ellipse fill="none" stroke="black" cx="2583" cy="-618.8" rx="173.308" ry="18"></ellipse>
<text text-anchor="middle" x="2583" y="-614.6" font-family="Times,serif" font-size="14.00">IDENTIFIER_NODE INT NORMAL_ID</text>
</g>
<!-- node36&#45;&gt;node37 -->
<g id="edge72" class="edge"><title>node36-&gt;node37</title>
<path fill="none" stroke="black" stroke-width="2" d="M2586.01,-672.497C2585.57,-664.783 2585.04,-655.512 2584.55,-646.912"></path>
<polygon fill="black" stroke="black" points="2588.04,-646.688 2583.98,-636.904 2581.05,-647.088 2588.04,-646.688"></polygon>
</g>
<!-- node49 -->
<g id="node86" class="node"><title>node49</title>
<ellipse fill="none" stroke="black" cx="2967" cy="-618.8" rx="192.385" ry="18"></ellipse>
<text text-anchor="middle" x="2967" y="-614.6" font-family="Times,serif" font-size="14.00">DECLARATION_NODE VARIABLE_DECL</text>
</g>
<!-- node36&#45;&gt;node49 -->
<g id="edge78" class="edge"><title>node36-&gt;node49</title>
<path fill="none" stroke="black" stroke-dasharray="5,2" d="M2669.92,-674.525C2730.14,-663.432 2811.67,-648.414 2874.08,-636.917"></path>
<polygon fill="black" stroke="black" points="2874.73,-640.357 2883.93,-635.103 2873.46,-633.473 2874.73,-640.357"></polygon>
</g>
<!-- node38 -->
<g id="node63" class="node"><title>node38</title>
<ellipse fill="none" stroke="black" cx="2583" cy="-546.8" rx="152.437" ry="18"></ellipse>
<text text-anchor="middle" x="2583" y="-542.6" font-family="Times,serif" font-size="14.00">IDENTIFIER_NODE f ARRAY_ID</text>
</g>
<!-- node37&#45;&gt;node38 -->
<g id="edge70" class="edge"><title>node37-&gt;node38</title>
<path fill="none" stroke="black" stroke-dasharray="5,2" d="M2583,-600.497C2583,-592.783 2583,-583.512 2583,-574.912"></path>
<polygon fill="black" stroke="black" points="2586.5,-574.904 2583,-564.904 2579.5,-574.904 2586.5,-574.904"></polygon>
</g>
<!-- node39 -->
<g id="node64" class="node"><title>node39</title>
<ellipse fill="none" stroke="black" cx="2583" cy="-474.8" rx="119.17" ry="18"></ellipse>
<text text-anchor="middle" x="2583" y="-470.6" font-family="Times,serif" font-size="14.00">CONST_VALUE_NODE 3</text>
</g>
<!-- node38&#45;&gt;node39 -->
<g id="edge68" class="edge"><title>node38-&gt;node39</title>
<path fill="none" stroke="black" stroke-width="2" d="M2583,-528.497C2583,-520.783 2583,-511.512 2583,-502.912"></path>
<polygon fill="black" stroke="black" points="2586.5,-502.904 2583,-492.904 2579.5,-502.904 2586.5,-502.904"></polygon>
</g>
<!-- node40 -->
<g id="node65" class="node"><title>node40</title>
<ellipse fill="none" stroke="black" cx="2583" cy="-402.8" rx="72.4803" ry="18"></ellipse>
<text text-anchor="middle" x="2583" y="-398.6" font-family="Times,serif" font-size="14.00">EXPR_NODE -</text>
</g>
<!-- node39&#45;&gt;node40 -->
<g id="edge66" class="edge"><title>node39-&gt;node40</title>
<path fill="none" stroke="black" stroke-dasharray="5,2" d="M2583,-456.497C2583,-448.783 2583,-439.512 2583,-430.912"></path>
<polygon fill="black" stroke="black" points="2586.5,-430.904 2583,-420.904 2579.5,-430.904 2586.5,-430.904"></polygon>
</g>
<!-- node41 -->
<g id="node66" class="node"><title>node41</title>
<ellipse fill="none" stroke="black" cx="2583" cy="-330.8" rx="74.4004" ry="18"></ellipse>
<text text-anchor="middle" x="2583" y="-326.6" font-family="Times,serif" font-size="14.00">EXPR_NODE *</text>
</g>
<!-- node40&#45;&gt;node41 -->
<g id="edge64" class="edge"><title>node40-&gt;node41</title>
<path fill="none" stroke="black" stroke-width="2" d="M2583,-384.497C2583,-376.783 2583,-367.512 2583,-358.912"></path>
<polygon fill="black" stroke="black" points="2586.5,-358.904 2583,-348.904 2579.5,-358.904 2586.5,-358.904"></polygon>
</g>
<!-- node42 -->
<g id="node67" class="node"><title>node42</title>
<ellipse fill="none" stroke="black" cx="2478" cy="-258.8" rx="119.17" ry="18"></ellipse>
<text text-anchor="middle" x="2478" y="-254.6" font-family="Times,serif" font-size="14.00">CONST_VALUE_NODE 3</text>
</g>
<!-- node41&#45;&gt;node42 -->
<g id="edge52" class="edge"><title>node41-&gt;node42</title>
<path fill="none" stroke="black" stroke-width="2" d="M2558.91,-313.741C2544.94,-304.428 2527.13,-292.555 2511.78,-282.32"></path>
<polygon fill="black" stroke="black" points="2513.33,-279.15 2503.07,-276.515 2509.45,-284.975 2513.33,-279.15"></polygon>
</g>
<!-- node44 -->
<g id="node71" class="node"><title>node44</title>
<ellipse fill="none" stroke="black" cx="2689" cy="-258.8" rx="72.1836" ry="18"></ellipse>
<text text-anchor="middle" x="2689" y="-254.6" font-family="Times,serif" font-size="14.00">EXPR_NODE /</text>
</g>
<!-- node41&#45;&gt;node44 -->
<g id="edge62" class="edge"><title>node41-&gt;node44</title>
<path fill="none" stroke="black" stroke-dasharray="5,2" d="M2607.32,-313.741C2621.86,-304.136 2640.53,-291.809 2656.35,-281.365"></path>
<polygon fill="black" stroke="black" points="2658.38,-284.216 2664.79,-275.785 2654.52,-278.375 2658.38,-284.216"></polygon>
</g>
<!-- node43 -->
<g id="node68" class="node"><title>node43</title>
<ellipse fill="none" stroke="black" cx="2478" cy="-186.8" rx="119.17" ry="18"></ellipse>
<text text-anchor="middle" x="2478" y="-182.6" font-family="Times,serif" font-size="14.00">CONST_VALUE_NODE 3</text>
</g>
<!-- node42&#45;&gt;node43 -->
<g id="edge50" class="edge"><title>node42-&gt;node43</title>
<path fill="none" stroke="black" stroke-dasharray="5,2" d="M2478,-240.497C2478,-232.783 2478,-223.512 2478,-214.912"></path>
<polygon fill="black" stroke="black" points="2481.5,-214.904 2478,-204.904 2474.5,-214.904 2481.5,-214.904"></polygon>
</g>
<!-- node45 -->
<g id="node72" class="node"><title>node45</title>
<ellipse fill="none" stroke="black" cx="2690" cy="-186.8" rx="75.3266" ry="18"></ellipse>
<text text-anchor="middle" x="2690" y="-182.6" font-family="Times,serif" font-size="14.00">EXPR_NODE +</text>
</g>
<!-- node44&#45;&gt;node45 -->
<g id="edge60" class="edge"><title>node44-&gt;node45</title>
<path fill="none" stroke="black" stroke-width="2" d="M2689.25,-240.497C2689.36,-232.783 2689.49,-223.512 2689.61,-214.912"></path>
<polygon fill="black" stroke="black" points="2693.11,-214.953 2689.76,-204.904 2686.11,-214.853 2693.11,-214.953"></polygon>
</g>
<!-- node46 -->
<g id="node73" class="node"><title>node46</title>
<ellipse fill="none" stroke="black" cx="2562" cy="-114.8" rx="119.17" ry="18"></ellipse>
<text text-anchor="middle" x="2562" y="-110.6" font-family="Times,serif" font-size="14.00">CONST_VALUE_NODE 4</text>
</g>
<!-- node45&#45;&gt;node46 -->
<g id="edge56" class="edge"><title>node45-&gt;node46</title>
<path fill="none" stroke="black" stroke-width="2" d="M2661.27,-170.091C2643.58,-160.417 2620.67,-147.884 2601.31,-137.297"></path>
<polygon fill="black" stroke="black" points="2602.87,-134.16 2592.41,-132.433 2599.51,-140.302 2602.87,-134.16"></polygon>
</g>
<!-- node48 -->
<g id="node77" class="node"><title>node48</title>
<ellipse fill="none" stroke="black" cx="2818" cy="-114.8" rx="119.17" ry="18"></ellipse>
<text text-anchor="middle" x="2818" y="-110.6" font-family="Times,serif" font-size="14.00">CONST_VALUE_NODE 2</text>
</g>
<!-- node45&#45;&gt;node48 -->
<g id="edge58" class="edge"><title>node45-&gt;node48</title>
<path fill="none" stroke="black" stroke-dasharray="5,2" d="M2718.73,-170.091C2736.42,-160.417 2759.33,-147.884 2778.69,-137.297"></path>
<polygon fill="black" stroke="black" points="2780.49,-140.302 2787.59,-132.433 2777.13,-134.16 2780.49,-140.302"></polygon>
</g>
<!-- node47 -->
<g id="node74" class="node"><title>node47</title>
<ellipse fill="none" stroke="black" cx="2562" cy="-42.8" rx="119.17" ry="18"></ellipse>
<text text-anchor="middle" x="2562" y="-38.6" font-family="Times,serif" font-size="14.00">CONST_VALUE_NODE 2</text>
</g>
<!-- node46&#45;&gt;node47 -->
<g id="edge54" class="edge"><title>node46-&gt;node47</title>
<path fill="none" stroke="black" stroke-dasharray="5,2" d="M2562,-96.4966C2562,-88.7827 2562,-79.5125 2562,-70.9124"></path>
<polygon fill="black" stroke="black" points="2565.5,-70.9043 2562,-60.9043 2558.5,-70.9044 2565.5,-70.9043"></polygon>
</g>
<!-- node50 -->
<g id="node87" class="node"><title>node50</title>
<ellipse fill="none" stroke="black" cx="2967" cy="-546.8" rx="188.344" ry="18"></ellipse>
<text text-anchor="middle" x="2967" y="-542.6" font-family="Times,serif" font-size="14.00">IDENTIFIER_NODE FLOAT NORMAL_ID</text>
</g>
<!-- node49&#45;&gt;node50 -->
<g id="edge76" class="edge"><title>node49-&gt;node50</title>
<path fill="none" stroke="black" stroke-width="2" d="M2967,-600.497C2967,-592.783 2967,-583.512 2967,-574.912"></path>
<polygon fill="black" stroke="black" points="2970.5,-574.904 2967,-564.904 2963.5,-574.904 2970.5,-574.904"></polygon>
</g>
<!-- node51 -->
<g id="node88" class="node"><title>node51</title>
<ellipse fill="none" stroke="black" cx="2967" cy="-474.8" rx="165.245" ry="18"></ellipse>
<text text-anchor="middle" x="2967" y="-470.6" font-family="Times,serif" font-size="14.00">IDENTIFIER_NODE f2 NORMAL_ID</text>
</g>
<!-- node50&#45;&gt;node51 -->
<g id="edge74" class="edge"><title>node50-&gt;node51</title>
<path fill="none" stroke="black" stroke-dasharray="5,2" d="M2967,-528.497C2967,-520.783 2967,-511.512 2967,-502.912"></path>
<polygon fill="black" stroke="black" points="2970.5,-502.904 2967,-492.904 2963.5,-502.904 2970.5,-502.904"></polygon>
</g>
</g>
</svg>
