<svg width="2840pt" height="1293pt" viewBox="0.00 0.00 2840.00 1292.80" xmlns="http://www.w3.org/2000/svg" xmlns:xlink="http://www.w3.org/1999/xlink">
<g id="graph1" class="graph" transform="scale(1 1) rotate(0) translate(4 1288.8)">
<title>AST</title>
<polygon fill="white" stroke="white" points="-4,5 -4,-1288.8 2837,-1288.8 2837,5 -4,5"></polygon>
<text text-anchor="middle" x="1416" y="-8.2" font-family="Times,serif" font-size="14.00">AST_Graph.gv</text>
<!-- node0 -->
<g id="node1" class="node"><title>node0</title>
<ellipse fill="none" stroke="black" cx="699" cy="-1266.8" rx="90.1382" ry="18"></ellipse>
<text text-anchor="middle" x="699" y="-1262.6" font-family="Times,serif" font-size="14.00">PROGRAM_NODE</text>
</g>
<!-- node1 -->
<g id="node2" class="node"><title>node1</title>
<ellipse fill="none" stroke="black" cx="699" cy="-1194.8" rx="192.385" ry="18"></ellipse>
<text text-anchor="middle" x="699" y="-1190.6" font-family="Times,serif" font-size="14.00">DECLARATION_NODE FUNCTION_DECL</text>
</g>
<!-- node0&#45;&gt;node1 -->
<g id="edge112" class="edge"><title>node0-&gt;node1</title>
<path fill="none" stroke="black" stroke-width="2" d="M699,-1248.5C699,-1240.78 699,-1231.51 699,-1222.91"></path>
<polygon fill="black" stroke="black" points="702.5,-1222.9 699,-1212.9 695.5,-1222.9 702.5,-1222.9"></polygon>
</g>
<!-- node2 -->
<g id="node3" class="node"><title>node2</title>
<ellipse fill="none" stroke="black" cx="510" cy="-1122.8" rx="167.473" ry="18"></ellipse>
<text text-anchor="middle" x="510" y="-1118.6" font-family="Times,serif" font-size="14.00">IDENTIFIER_NODE int NORMAL_ID</text>
</g>
<!-- node1&#45;&gt;node2 -->
<g id="edge28" class="edge"><title>node1-&gt;node2</title>
<path fill="none" stroke="black" stroke-width="2" d="M654.21,-1177.21C627.141,-1167.19 592.466,-1154.34 563.902,-1143.76"></path>
<polygon fill="black" stroke="black" points="565.062,-1140.46 554.469,-1140.27 562.631,-1147.03 565.062,-1140.46"></polygon>
</g>
<!-- node16 -->
<g id="node31" class="node"><title>node16</title>
<ellipse fill="none" stroke="black" cx="888" cy="-1122.8" rx="192.385" ry="18"></ellipse>
<text text-anchor="middle" x="888" y="-1118.6" font-family="Times,serif" font-size="14.00">DECLARATION_NODE FUNCTION_DECL</text>
</g>
<!-- node1&#45;&gt;node16 -->
<g id="edge110" class="edge"><title>node1-&gt;node16</title>
<path fill="none" stroke="black" stroke-dasharray="5,2" d="M743.79,-1177.21C770.761,-1167.22 805.282,-1154.44 833.787,-1143.88"></path>
<polygon fill="black" stroke="black" points="835.042,-1147.15 843.204,-1140.39 832.611,-1140.58 835.042,-1147.15"></polygon>
</g>
<!-- node3 -->
<g id="node4" class="node"><title>node3</title>
<ellipse fill="none" stroke="black" cx="510" cy="-1050.8" rx="169.988" ry="18"></ellipse>
<text text-anchor="middle" x="510" y="-1046.6" font-family="Times,serif" font-size="14.00">IDENTIFIER_NODE fn1 NORMAL_ID</text>
</g>
<!-- node2&#45;&gt;node3 -->
<g id="edge26" class="edge"><title>node2-&gt;node3</title>
<path fill="none" stroke="black" stroke-dasharray="5,2" d="M510,-1104.5C510,-1096.78 510,-1087.51 510,-1078.91"></path>
<polygon fill="black" stroke="black" points="513.5,-1078.9 510,-1068.9 506.5,-1078.9 513.5,-1078.9"></polygon>
</g>
<!-- node4 -->
<g id="node5" class="node"><title>node4</title>
<ellipse fill="none" stroke="black" cx="510" cy="-978.8" rx="102.336" ry="18"></ellipse>
<text text-anchor="middle" x="510" y="-974.6" font-family="Times,serif" font-size="14.00">PARAM_LIST_NODE</text>
</g>
<!-- node3&#45;&gt;node4 -->
<g id="edge24" class="edge"><title>node3-&gt;node4</title>
<path fill="none" stroke="black" stroke-dasharray="5,2" d="M510,-1032.5C510,-1024.78 510,-1015.51 510,-1006.91"></path>
<polygon fill="black" stroke="black" points="513.5,-1006.9 510,-996.904 506.5,-1006.9 513.5,-1006.9"></polygon>
</g>
<!-- node5 -->
<g id="node6" class="node"><title>node5</title>
<ellipse fill="none" stroke="black" cx="510" cy="-906.8" rx="75.1019" ry="18"></ellipse>
<text text-anchor="middle" x="510" y="-902.6" font-family="Times,serif" font-size="14.00">BLOCK_NODE</text>
</g>
<!-- node4&#45;&gt;node5 -->
<g id="edge22" class="edge"><title>node4-&gt;node5</title>
<path fill="none" stroke="black" stroke-dasharray="5,2" d="M510,-960.497C510,-952.783 510,-943.512 510,-934.912"></path>
<polygon fill="black" stroke="black" points="513.5,-934.904 510,-924.904 506.5,-934.904 513.5,-934.904"></polygon>
</g>
<!-- node6 -->
<g id="node7" class="node"><title>node6</title>
<ellipse fill="none" stroke="black" cx="510" cy="-834.8" rx="146.604" ry="18"></ellipse>
<text text-anchor="middle" x="510" y="-830.6" font-family="Times,serif" font-size="14.00">VARIABLE_DECL_LIST_NODE</text>
</g>
<!-- node5&#45;&gt;node6 -->
<g id="edge20" class="edge"><title>node5-&gt;node6</title>
<path fill="none" stroke="black" stroke-width="2" d="M510,-888.497C510,-880.783 510,-871.512 510,-862.912"></path>
<polygon fill="black" stroke="black" points="513.5,-862.904 510,-852.904 506.5,-862.904 513.5,-862.904"></polygon>
</g>
<!-- node7 -->
<g id="node8" class="node"><title>node7</title>
<ellipse fill="none" stroke="black" cx="195" cy="-762.8" rx="192.385" ry="18"></ellipse>
<text text-anchor="middle" x="195" y="-758.6" font-family="Times,serif" font-size="14.00">DECLARATION_NODE VARIABLE_DECL</text>
</g>
<!-- node6&#45;&gt;node7 -->
<g id="edge8" class="edge"><title>node6-&gt;node7</title>
<path fill="none" stroke="black" stroke-width="2" d="M442.425,-818.783C393.598,-807.933 327.432,-793.229 275.808,-781.757"></path>
<polygon fill="black" stroke="black" points="276.538,-778.334 266.017,-779.581 275.019,-785.168 276.538,-778.334"></polygon>
</g>
<!-- node11 -->
<g id="node16" class="node"><title>node11</title>
<ellipse fill="none" stroke="black" cx="510" cy="-762.8" rx="93.4599" ry="18"></ellipse>
<text text-anchor="middle" x="510" y="-758.6" font-family="Times,serif" font-size="14.00">STMT_LIST_NODE</text>
</g>
<!-- node6&#45;&gt;node11 -->
<g id="edge18" class="edge"><title>node6-&gt;node11</title>
<path fill="none" stroke="black" stroke-dasharray="5,2" d="M510,-816.497C510,-808.783 510,-799.512 510,-790.912"></path>
<polygon fill="black" stroke="black" points="513.5,-790.904 510,-780.904 506.5,-790.904 513.5,-790.904"></polygon>
</g>
<!-- node8 -->
<g id="node9" class="node"><title>node8</title>
<ellipse fill="none" stroke="black" cx="184" cy="-690.8" rx="167.473" ry="18"></ellipse>
<text text-anchor="middle" x="184" y="-686.6" font-family="Times,serif" font-size="14.00">IDENTIFIER_NODE int NORMAL_ID</text>
</g>
<!-- node7&#45;&gt;node8 -->
<g id="edge6" class="edge"><title>node7-&gt;node8</title>
<path fill="none" stroke="black" stroke-width="2" d="M192.281,-744.497C191.069,-736.783 189.612,-727.512 188.261,-718.912"></path>
<polygon fill="black" stroke="black" points="191.698,-718.24 186.688,-708.904 184.783,-719.326 191.698,-718.24"></polygon>
</g>
<!-- node9 -->
<g id="node10" class="node"><title>node9</title>
<ellipse fill="none" stroke="black" cx="184" cy="-618.8" rx="184.196" ry="18"></ellipse>
<text text-anchor="middle" x="184" y="-614.6" font-family="Times,serif" font-size="14.00">IDENTIFIER_NODE ABC WITH_INIT_ID</text>
</g>
<!-- node8&#45;&gt;node9 -->
<g id="edge4" class="edge"><title>node8-&gt;node9</title>
<path fill="none" stroke="black" stroke-dasharray="5,2" d="M184,-672.497C184,-664.783 184,-655.512 184,-646.912"></path>
<polygon fill="black" stroke="black" points="187.5,-646.904 184,-636.904 180.5,-646.904 187.5,-646.904"></polygon>
</g>
<!-- node10 -->
<g id="node11" class="node"><title>node10</title>
<ellipse fill="none" stroke="black" cx="184" cy="-546.8" rx="119.17" ry="18"></ellipse>
<text text-anchor="middle" x="184" y="-542.6" font-family="Times,serif" font-size="14.00">CONST_VALUE_NODE 5</text>
</g>
<!-- node9&#45;&gt;node10 -->
<g id="edge2" class="edge"><title>node9-&gt;node10</title>
<path fill="none" stroke="black" stroke-width="2" d="M184,-600.497C184,-592.783 184,-583.512 184,-574.912"></path>
<polygon fill="black" stroke="black" points="187.5,-574.904 184,-564.904 180.5,-574.904 187.5,-574.904"></polygon>
</g>
<!-- node12 -->
<g id="node17" class="node"><title>node12</title>
<ellipse fill="none" stroke="black" cx="510" cy="-690.8" rx="140.068" ry="18"></ellipse>
<text text-anchor="middle" x="510" y="-686.6" font-family="Times,serif" font-size="14.00">STMT_NODE RETURN_STMT</text>
</g>
<!-- node11&#45;&gt;node12 -->
<g id="edge16" class="edge"><title>node11-&gt;node12</title>
<path fill="none" stroke="black" stroke-width="2" d="M510,-744.497C510,-736.783 510,-727.512 510,-718.912"></path>
<polygon fill="black" stroke="black" points="513.5,-718.904 510,-708.904 506.5,-718.904 513.5,-718.904"></polygon>
</g>
<!-- node13 -->
<g id="node18" class="node"><title>node13</title>
<ellipse fill="none" stroke="black" cx="510" cy="-618.8" rx="75.3266" ry="18"></ellipse>
<text text-anchor="middle" x="510" y="-614.6" font-family="Times,serif" font-size="14.00">EXPR_NODE +</text>
</g>
<!-- node12&#45;&gt;node13 -->
<g id="edge14" class="edge"><title>node12-&gt;node13</title>
<path fill="none" stroke="black" stroke-width="2" d="M510,-672.497C510,-664.783 510,-655.512 510,-646.912"></path>
<polygon fill="black" stroke="black" points="513.5,-646.904 510,-636.904 506.5,-646.904 513.5,-646.904"></polygon>
</g>
<!-- node14 -->
<g id="node19" class="node"><title>node14</title>
<ellipse fill="none" stroke="black" cx="510" cy="-546.8" rx="176.958" ry="18"></ellipse>
<text text-anchor="middle" x="510" y="-542.6" font-family="Times,serif" font-size="14.00">IDENTIFIER_NODE ABC NORMAL_ID</text>
</g>
<!-- node13&#45;&gt;node14 -->
<g id="edge12" class="edge"><title>node13-&gt;node14</title>
<path fill="none" stroke="black" stroke-width="2" d="M510,-600.497C510,-592.783 510,-583.512 510,-574.912"></path>
<polygon fill="black" stroke="black" points="513.5,-574.904 510,-564.904 506.5,-574.904 513.5,-574.904"></polygon>
</g>
<!-- node15 -->
<g id="node20" class="node"><title>node15</title>
<ellipse fill="none" stroke="black" cx="510" cy="-474.8" rx="119.17" ry="18"></ellipse>
<text text-anchor="middle" x="510" y="-470.6" font-family="Times,serif" font-size="14.00">CONST_VALUE_NODE 5</text>
</g>
<!-- node14&#45;&gt;node15 -->
<g id="edge10" class="edge"><title>node14-&gt;node15</title>
<path fill="none" stroke="black" stroke-dasharray="5,2" d="M510,-528.497C510,-520.783 510,-511.512 510,-502.912"></path>
<polygon fill="black" stroke="black" points="513.5,-502.904 510,-492.904 506.5,-502.904 513.5,-502.904"></polygon>
</g>
<!-- node17 -->
<g id="node32" class="node"><title>node17</title>
<ellipse fill="none" stroke="black" cx="880" cy="-1050.8" rx="174.433" ry="18"></ellipse>
<text text-anchor="middle" x="880" y="-1046.6" font-family="Times,serif" font-size="14.00">IDENTIFIER_NODE void NORMAL_ID</text>
</g>
<!-- node16&#45;&gt;node17 -->
<g id="edge36" class="edge"><title>node16-&gt;node17</title>
<path fill="none" stroke="black" stroke-width="2" d="M886.022,-1104.5C885.141,-1096.78 884.081,-1087.51 883.099,-1078.91"></path>
<polygon fill="black" stroke="black" points="886.568,-1078.44 881.955,-1068.9 879.613,-1079.24 886.568,-1078.44"></polygon>
</g>
<!-- node21 -->
<g id="node40" class="node"><title>node21</title>
<ellipse fill="none" stroke="black" cx="1265" cy="-1050.8" rx="192.385" ry="18"></ellipse>
<text text-anchor="middle" x="1265" y="-1046.6" font-family="Times,serif" font-size="14.00">DECLARATION_NODE FUNCTION_DECL</text>
</g>
<!-- node16&#45;&gt;node21 -->
<g id="edge108" class="edge"><title>node16-&gt;node21</title>
<path fill="none" stroke="black" stroke-dasharray="5,2" d="M970.268,-1106.52C1029.89,-1095.45 1110.56,-1080.48 1172.43,-1068.99"></path>
<polygon fill="black" stroke="black" points="1173.39,-1072.37 1182.58,-1067.1 1172.11,-1065.49 1173.39,-1072.37"></polygon>
</g>
<!-- node18 -->
<g id="node33" class="node"><title>node18</title>
<ellipse fill="none" stroke="black" cx="880" cy="-978.8" rx="169.988" ry="18"></ellipse>
<text text-anchor="middle" x="880" y="-974.6" font-family="Times,serif" font-size="14.00">IDENTIFIER_NODE fn2 NORMAL_ID</text>
</g>
<!-- node17&#45;&gt;node18 -->
<g id="edge34" class="edge"><title>node17-&gt;node18</title>
<path fill="none" stroke="black" stroke-dasharray="5,2" d="M880,-1032.5C880,-1024.78 880,-1015.51 880,-1006.91"></path>
<polygon fill="black" stroke="black" points="883.5,-1006.9 880,-996.904 876.5,-1006.9 883.5,-1006.9"></polygon>
</g>
<!-- node19 -->
<g id="node34" class="node"><title>node19</title>
<ellipse fill="none" stroke="black" cx="880" cy="-906.8" rx="102.336" ry="18"></ellipse>
<text text-anchor="middle" x="880" y="-902.6" font-family="Times,serif" font-size="14.00">PARAM_LIST_NODE</text>
</g>
<!-- node18&#45;&gt;node19 -->
<g id="edge32" class="edge"><title>node18-&gt;node19</title>
<path fill="none" stroke="black" stroke-dasharray="5,2" d="M880,-960.497C880,-952.783 880,-943.512 880,-934.912"></path>
<polygon fill="black" stroke="black" points="883.5,-934.904 880,-924.904 876.5,-934.904 883.5,-934.904"></polygon>
</g>
<!-- node20 -->
<g id="node35" class="node"><title>node20</title>
<ellipse fill="none" stroke="black" cx="880" cy="-834.8" rx="75.1019" ry="18"></ellipse>
<text text-anchor="middle" x="880" y="-830.6" font-family="Times,serif" font-size="14.00">BLOCK_NODE</text>
</g>
<!-- node19&#45;&gt;node20 -->
<g id="edge30" class="edge"><title>node19-&gt;node20</title>
<path fill="none" stroke="black" stroke-dasharray="5,2" d="M880,-888.497C880,-880.783 880,-871.512 880,-862.912"></path>
<polygon fill="black" stroke="black" points="883.5,-862.904 880,-852.904 876.5,-862.904 883.5,-862.904"></polygon>
</g>
<!-- node22 -->
<g id="node41" class="node"><title>node22</title>
<ellipse fill="none" stroke="black" cx="1258" cy="-978.8" rx="174.433" ry="18"></ellipse>
<text text-anchor="middle" x="1258" y="-974.6" font-family="Times,serif" font-size="14.00">IDENTIFIER_NODE void NORMAL_ID</text>
</g>
<!-- node21&#45;&gt;node22 -->
<g id="edge60" class="edge"><title>node21-&gt;node22</title>
<path fill="none" stroke="black" stroke-width="2" d="M1263.27,-1032.5C1262.5,-1024.78 1261.57,-1015.51 1260.71,-1006.91"></path>
<polygon fill="black" stroke="black" points="1264.19,-1006.51 1259.71,-996.904 1257.22,-1007.2 1264.19,-1006.51"></polygon>
</g>
<!-- node34 -->
<g id="node65" class="node"><title>node34</title>
<ellipse fill="none" stroke="black" cx="1643" cy="-978.8" rx="192.385" ry="18"></ellipse>
<text text-anchor="middle" x="1643" y="-974.6" font-family="Times,serif" font-size="14.00">DECLARATION_NODE FUNCTION_DECL</text>
</g>
<!-- node21&#45;&gt;node34 -->
<g id="edge106" class="edge"><title>node21-&gt;node34</title>
<path fill="none" stroke="black" stroke-dasharray="5,2" d="M1347.49,-1034.52C1407.26,-1023.45 1488.15,-1008.48 1550.18,-996.988"></path>
<polygon fill="black" stroke="black" points="1551.17,-1000.37 1560.36,-995.103 1549.89,-993.483 1551.17,-1000.37"></polygon>
</g>
<!-- node23 -->
<g id="node42" class="node"><title>node23</title>
<ellipse fill="none" stroke="black" cx="1258" cy="-906.8" rx="169.988" ry="18"></ellipse>
<text text-anchor="middle" x="1258" y="-902.6" font-family="Times,serif" font-size="14.00">IDENTIFIER_NODE fn3 NORMAL_ID</text>
</g>
<!-- node22&#45;&gt;node23 -->
<g id="edge58" class="edge"><title>node22-&gt;node23</title>
<path fill="none" stroke="black" stroke-dasharray="5,2" d="M1258,-960.497C1258,-952.783 1258,-943.512 1258,-934.912"></path>
<polygon fill="black" stroke="black" points="1261.5,-934.904 1258,-924.904 1254.5,-934.904 1261.5,-934.904"></polygon>
</g>
<!-- node24 -->
<g id="node43" class="node"><title>node24</title>
<ellipse fill="none" stroke="black" cx="1258" cy="-834.8" rx="102.336" ry="18"></ellipse>
<text text-anchor="middle" x="1258" y="-830.6" font-family="Times,serif" font-size="14.00">PARAM_LIST_NODE</text>
</g>
<!-- node23&#45;&gt;node24 -->
<g id="edge56" class="edge"><title>node23-&gt;node24</title>
<path fill="none" stroke="black" stroke-dasharray="5,2" d="M1258,-888.497C1258,-880.783 1258,-871.512 1258,-862.912"></path>
<polygon fill="black" stroke="black" points="1261.5,-862.904 1258,-852.904 1254.5,-862.904 1261.5,-862.904"></polygon>
</g>
<!-- node25 -->
<g id="node44" class="node"><title>node25</title>
<ellipse fill="none" stroke="black" cx="1004" cy="-762.8" rx="255.339" ry="18"></ellipse>
<text text-anchor="middle" x="1004" y="-758.6" font-family="Times,serif" font-size="14.00">DECLARATION_NODE FUNCTION_PARAMETER_DECL</text>
</g>
<!-- node24&#45;&gt;node25 -->
<g id="edge52" class="edge"><title>node24-&gt;node25</title>
<path fill="none" stroke="black" stroke-width="2" d="M1205.37,-819.296C1167.3,-808.804 1115.46,-794.518 1073.92,-783.069"></path>
<polygon fill="black" stroke="black" points="1074.71,-779.656 1064.14,-780.373 1072.85,-786.404 1074.71,-779.656"></polygon>
</g>
<!-- node33 -->
<g id="node60" class="node"><title>node33</title>
<ellipse fill="none" stroke="black" cx="1353" cy="-762.8" rx="75.1019" ry="18"></ellipse>
<text text-anchor="middle" x="1353" y="-758.6" font-family="Times,serif" font-size="14.00">BLOCK_NODE</text>
</g>
<!-- node24&#45;&gt;node33 -->
<g id="edge54" class="edge"><title>node24-&gt;node33</title>
<path fill="none" stroke="black" stroke-dasharray="5,2" d="M1280.51,-817.211C1293.15,-807.903 1309.07,-796.167 1322.78,-786.068"></path>
<polygon fill="black" stroke="black" points="1325,-788.778 1330.98,-780.028 1320.85,-783.143 1325,-788.778"></polygon>
</g>
<!-- node26 -->
<g id="node45" class="node"><title>node26</title>
<ellipse fill="none" stroke="black" cx="836" cy="-690.8" rx="167.473" ry="18"></ellipse>
<text text-anchor="middle" x="836" y="-686.6" font-family="Times,serif" font-size="14.00">IDENTIFIER_NODE int NORMAL_ID</text>
</g>
<!-- node25&#45;&gt;node26 -->
<g id="edge40" class="edge"><title>node25-&gt;node26</title>
<path fill="none" stroke="black" stroke-width="2" d="M963.332,-744.855C939.738,-735.024 909.864,-722.576 884.982,-712.209"></path>
<polygon fill="black" stroke="black" points="886.291,-708.963 875.714,-708.347 883.598,-715.424 886.291,-708.963"></polygon>
</g>
<!-- node28 -->
<g id="node49" class="node"><title>node28</title>
<ellipse fill="none" stroke="black" cx="1278" cy="-690.8" rx="255.339" ry="18"></ellipse>
<text text-anchor="middle" x="1278" y="-686.6" font-family="Times,serif" font-size="14.00">DECLARATION_NODE FUNCTION_PARAMETER_DECL</text>
</g>
<!-- node25&#45;&gt;node28 -->
<g id="edge50" class="edge"><title>node25-&gt;node28</title>
<path fill="none" stroke="black" stroke-dasharray="5,2" d="M1068.59,-745.3C1109.01,-734.972 1161.25,-721.628 1203.43,-710.85"></path>
<polygon fill="black" stroke="black" points="1204.55,-714.177 1213.37,-708.311 1202.82,-707.395 1204.55,-714.177"></polygon>
</g>
<!-- node27 -->
<g id="node46" class="node"><title>node27</title>
<ellipse fill="none" stroke="black" cx="836" cy="-618.8" rx="161.61" ry="18"></ellipse>
<text text-anchor="middle" x="836" y="-614.6" font-family="Times,serif" font-size="14.00">IDENTIFIER_NODE a NORMAL_ID</text>
</g>
<!-- node26&#45;&gt;node27 -->
<g id="edge38" class="edge"><title>node26-&gt;node27</title>
<path fill="none" stroke="black" stroke-dasharray="5,2" d="M836,-672.497C836,-664.783 836,-655.512 836,-646.912"></path>
<polygon fill="black" stroke="black" points="839.5,-646.904 836,-636.904 832.5,-646.904 839.5,-646.904"></polygon>
</g>
<!-- node29 -->
<g id="node50" class="node"><title>node29</title>
<ellipse fill="none" stroke="black" cx="1278" cy="-618.8" rx="167.473" ry="18"></ellipse>
<text text-anchor="middle" x="1278" y="-614.6" font-family="Times,serif" font-size="14.00">IDENTIFIER_NODE int NORMAL_ID</text>
</g>
<!-- node28&#45;&gt;node29 -->
<g id="edge48" class="edge"><title>node28-&gt;node29</title>
<path fill="none" stroke="black" stroke-width="2" d="M1278,-672.497C1278,-664.783 1278,-655.512 1278,-646.912"></path>
<polygon fill="black" stroke="black" points="1281.5,-646.904 1278,-636.904 1274.5,-646.904 1281.5,-646.904"></polygon>
</g>
<!-- node30 -->
<g id="node51" class="node"><title>node30</title>
<ellipse fill="none" stroke="black" cx="1278" cy="-546.8" rx="154.358" ry="18"></ellipse>
<text text-anchor="middle" x="1278" y="-542.6" font-family="Times,serif" font-size="14.00">IDENTIFIER_NODE b ARRAY_ID</text>
</g>
<!-- node29&#45;&gt;node30 -->
<g id="edge46" class="edge"><title>node29-&gt;node30</title>
<path fill="none" stroke="black" stroke-dasharray="5,2" d="M1278,-600.497C1278,-592.783 1278,-583.512 1278,-574.912"></path>
<polygon fill="black" stroke="black" points="1281.5,-574.904 1278,-564.904 1274.5,-574.904 1281.5,-574.904"></polygon>
</g>
<!-- node31 -->
<g id="node52" class="node"><title>node31</title>
<ellipse fill="none" stroke="black" cx="1278" cy="-474.8" rx="119.17" ry="18"></ellipse>
<text text-anchor="middle" x="1278" y="-470.6" font-family="Times,serif" font-size="14.00">CONST_VALUE_NODE 3</text>
</g>
<!-- node30&#45;&gt;node31 -->
<g id="edge44" class="edge"><title>node30-&gt;node31</title>
<path fill="none" stroke="black" stroke-width="2" d="M1278,-528.497C1278,-520.783 1278,-511.512 1278,-502.912"></path>
<polygon fill="black" stroke="black" points="1281.5,-502.904 1278,-492.904 1274.5,-502.904 1281.5,-502.904"></polygon>
</g>
<!-- node32 -->
<g id="node53" class="node"><title>node32</title>
<ellipse fill="none" stroke="black" cx="1278" cy="-402.8" rx="119.17" ry="18"></ellipse>
<text text-anchor="middle" x="1278" y="-398.6" font-family="Times,serif" font-size="14.00">CONST_VALUE_NODE 4</text>
</g>
<!-- node31&#45;&gt;node32 -->
<g id="edge42" class="edge"><title>node31-&gt;node32</title>
<path fill="none" stroke="black" stroke-dasharray="5,2" d="M1278,-456.497C1278,-448.783 1278,-439.512 1278,-430.912"></path>
<polygon fill="black" stroke="black" points="1281.5,-430.904 1278,-420.904 1274.5,-430.904 1281.5,-430.904"></polygon>
</g>
<!-- node35 -->
<g id="node66" class="node"><title>node35</title>
<ellipse fill="none" stroke="black" cx="1643" cy="-906.8" rx="167.473" ry="18"></ellipse>
<text text-anchor="middle" x="1643" y="-902.6" font-family="Times,serif" font-size="14.00">IDENTIFIER_NODE int NORMAL_ID</text>
</g>
<!-- node34&#45;&gt;node35 -->
<g id="edge104" class="edge"><title>node34-&gt;node35</title>
<path fill="none" stroke="black" stroke-width="2" d="M1643,-960.497C1643,-952.783 1643,-943.512 1643,-934.912"></path>
<polygon fill="black" stroke="black" points="1646.5,-934.904 1643,-924.904 1639.5,-934.904 1646.5,-934.904"></polygon>
</g>
<!-- node36 -->
<g id="node67" class="node"><title>node36</title>
<ellipse fill="none" stroke="black" cx="1643" cy="-834.8" rx="176.147" ry="18"></ellipse>
<text text-anchor="middle" x="1643" y="-830.6" font-family="Times,serif" font-size="14.00">IDENTIFIER_NODE main NORMAL_ID</text>
</g>
<!-- node35&#45;&gt;node36 -->
<g id="edge102" class="edge"><title>node35-&gt;node36</title>
<path fill="none" stroke="black" stroke-dasharray="5,2" d="M1643,-888.497C1643,-880.783 1643,-871.512 1643,-862.912"></path>
<polygon fill="black" stroke="black" points="1646.5,-862.904 1643,-852.904 1639.5,-862.904 1646.5,-862.904"></polygon>
</g>
<!-- node37 -->
<g id="node68" class="node"><title>node37</title>
<ellipse fill="none" stroke="black" cx="1643" cy="-762.8" rx="102.336" ry="18"></ellipse>
<text text-anchor="middle" x="1643" y="-758.6" font-family="Times,serif" font-size="14.00">PARAM_LIST_NODE</text>
</g>
<!-- node36&#45;&gt;node37 -->
<g id="edge100" class="edge"><title>node36-&gt;node37</title>
<path fill="none" stroke="black" stroke-dasharray="5,2" d="M1643,-816.497C1643,-808.783 1643,-799.512 1643,-790.912"></path>
<polygon fill="black" stroke="black" points="1646.5,-790.904 1643,-780.904 1639.5,-790.904 1646.5,-790.904"></polygon>
</g>
<!-- node38 -->
<g id="node69" class="node"><title>node38</title>
<ellipse fill="none" stroke="black" cx="1643" cy="-690.8" rx="75.1019" ry="18"></ellipse>
<text text-anchor="middle" x="1643" y="-686.6" font-family="Times,serif" font-size="14.00">BLOCK_NODE</text>
</g>
<!-- node37&#45;&gt;node38 -->
<g id="edge98" class="edge"><title>node37-&gt;node38</title>
<path fill="none" stroke="black" stroke-dasharray="5,2" d="M1643,-744.497C1643,-736.783 1643,-727.512 1643,-718.912"></path>
<polygon fill="black" stroke="black" points="1646.5,-718.904 1643,-708.904 1639.5,-718.904 1646.5,-718.904"></polygon>
</g>
<!-- node39 -->
<g id="node70" class="node"><title>node39</title>
<ellipse fill="none" stroke="black" cx="1643" cy="-618.8" rx="146.604" ry="18"></ellipse>
<text text-anchor="middle" x="1643" y="-614.6" font-family="Times,serif" font-size="14.00">VARIABLE_DECL_LIST_NODE</text>
</g>
<!-- node38&#45;&gt;node39 -->
<g id="edge96" class="edge"><title>node38-&gt;node39</title>
<path fill="none" stroke="black" stroke-width="2" d="M1643,-672.497C1643,-664.783 1643,-655.512 1643,-646.912"></path>
<polygon fill="black" stroke="black" points="1646.5,-646.904 1643,-636.904 1639.5,-646.904 1646.5,-646.904"></polygon>
</g>
<!-- node40 -->
<g id="node71" class="node"><title>node40</title>
<ellipse fill="none" stroke="black" cx="1643" cy="-546.8" rx="192.385" ry="18"></ellipse>
<text text-anchor="middle" x="1643" y="-542.6" font-family="Times,serif" font-size="14.00">DECLARATION_NODE VARIABLE_DECL</text>
</g>
<!-- node39&#45;&gt;node40 -->
<g id="edge70" class="edge"><title>node39-&gt;node40</title>
<path fill="none" stroke="black" stroke-width="2" d="M1643,-600.497C1643,-592.783 1643,-583.512 1643,-574.912"></path>
<polygon fill="black" stroke="black" points="1646.5,-574.904 1643,-564.904 1639.5,-574.904 1646.5,-574.904"></polygon>
</g>
<!-- node45 -->
<g id="node81" class="node"><title>node45</title>
<ellipse fill="none" stroke="black" cx="1963" cy="-546.8" rx="93.4599" ry="18"></ellipse>
<text text-anchor="middle" x="1963" y="-542.6" font-family="Times,serif" font-size="14.00">STMT_LIST_NODE</text>
</g>
<!-- node39&#45;&gt;node45 -->
<g id="edge94" class="edge"><title>node39-&gt;node45</title>
<path fill="none" stroke="black" stroke-dasharray="5,2" d="M1711.26,-602.869C1765.08,-591.094 1839.83,-574.743 1893.88,-562.919"></path>
<polygon fill="black" stroke="black" points="1894.7,-566.323 1903.72,-560.767 1893.21,-559.484 1894.7,-566.323"></polygon>
</g>
<!-- node41 -->
<g id="node72" class="node"><title>node41</title>
<ellipse fill="none" stroke="black" cx="1613" cy="-474.8" rx="167.473" ry="18"></ellipse>
<text text-anchor="middle" x="1613" y="-470.6" font-family="Times,serif" font-size="14.00">IDENTIFIER_NODE int NORMAL_ID</text>
</g>
<!-- node40&#45;&gt;node41 -->
<g id="edge68" class="edge"><title>node40-&gt;node41</title>
<path fill="none" stroke="black" stroke-width="2" d="M1635.58,-528.497C1632.21,-520.613 1628.13,-511.104 1624.38,-502.346"></path>
<polygon fill="black" stroke="black" points="1627.49,-500.717 1620.33,-492.904 1621.05,-503.475 1627.49,-500.717"></polygon>
</g>
<!-- node42 -->
<g id="node73" class="node"><title>node42</title>
<ellipse fill="none" stroke="black" cx="1613" cy="-402.8" rx="154.358" ry="18"></ellipse>
<text text-anchor="middle" x="1613" y="-398.6" font-family="Times,serif" font-size="14.00">IDENTIFIER_NODE b ARRAY_ID</text>
</g>
<!-- node41&#45;&gt;node42 -->
<g id="edge66" class="edge"><title>node41-&gt;node42</title>
<path fill="none" stroke="black" stroke-dasharray="5,2" d="M1613,-456.497C1613,-448.783 1613,-439.512 1613,-430.912"></path>
<polygon fill="black" stroke="black" points="1616.5,-430.904 1613,-420.904 1609.5,-430.904 1616.5,-430.904"></polygon>
</g>
<!-- node43 -->
<g id="node74" class="node"><title>node43</title>
<ellipse fill="none" stroke="black" cx="1613" cy="-330.8" rx="119.17" ry="18"></ellipse>
<text text-anchor="middle" x="1613" y="-326.6" font-family="Times,serif" font-size="14.00">CONST_VALUE_NODE 4</text>
</g>
<!-- node42&#45;&gt;node43 -->
<g id="edge64" class="edge"><title>node42-&gt;node43</title>
<path fill="none" stroke="black" stroke-width="2" d="M1613,-384.497C1613,-376.783 1613,-367.512 1613,-358.912"></path>
<polygon fill="black" stroke="black" points="1616.5,-358.904 1613,-348.904 1609.5,-358.904 1616.5,-358.904"></polygon>
</g>
<!-- node44 -->
<g id="node75" class="node"><title>node44</title>
<ellipse fill="none" stroke="black" cx="1613" cy="-258.8" rx="119.17" ry="18"></ellipse>
<text text-anchor="middle" x="1613" y="-254.6" font-family="Times,serif" font-size="14.00">CONST_VALUE_NODE 4</text>
</g>
<!-- node43&#45;&gt;node44 -->
<g id="edge62" class="edge"><title>node43-&gt;node44</title>
<path fill="none" stroke="black" stroke-dasharray="5,2" d="M1613,-312.497C1613,-304.783 1613,-295.512 1613,-286.912"></path>
<polygon fill="black" stroke="black" points="1616.5,-286.904 1613,-276.904 1609.5,-286.904 1616.5,-286.904"></polygon>
</g>
<!-- node46 -->
<g id="node82" class="node"><title>node46</title>
<ellipse fill="none" stroke="black" cx="1979" cy="-474.8" rx="179.906" ry="18"></ellipse>
<text text-anchor="middle" x="1979" y="-470.6" font-family="Times,serif" font-size="14.00">STMT_NODE FUNCTION_CALL_STMT</text>
</g>
<!-- node45&#45;&gt;node46 -->
<g id="edge92" class="edge"><title>node45-&gt;node46</title>
<path fill="none" stroke="black" stroke-width="2" d="M1966.96,-528.497C1968.72,-520.783 1970.84,-511.512 1972.8,-502.912"></path>
<polygon fill="black" stroke="black" points="1976.27,-503.433 1975.09,-492.904 1969.45,-501.873 1976.27,-503.433"></polygon>
</g>
<!-- node47 -->
<g id="node83" class="node"><title>node47</title>
<ellipse fill="none" stroke="black" cx="1967" cy="-402.8" rx="169.988" ry="18"></ellipse>
<text text-anchor="middle" x="1967" y="-398.6" font-family="Times,serif" font-size="14.00">IDENTIFIER_NODE fn1 NORMAL_ID</text>
</g>
<!-- node46&#45;&gt;node47 -->
<g id="edge74" class="edge"><title>node46-&gt;node47</title>
<path fill="none" stroke="black" stroke-width="2" d="M1976.03,-456.497C1974.71,-448.783 1973.12,-439.512 1971.65,-430.912"></path>
<polygon fill="black" stroke="black" points="1975.07,-430.169 1969.93,-420.904 1968.17,-431.352 1975.07,-430.169"></polygon>
</g>
<!-- node49 -->
<g id="node87" class="node"><title>node49</title>
<ellipse fill="none" stroke="black" cx="2336" cy="-402.8" rx="179.906" ry="18"></ellipse>
<text text-anchor="middle" x="2336" y="-398.6" font-family="Times,serif" font-size="14.00">STMT_NODE FUNCTION_CALL_STMT</text>
</g>
<!-- node46&#45;&gt;node49 -->
<g id="edge90" class="edge"><title>node46-&gt;node49</title>
<path fill="none" stroke="black" stroke-dasharray="5,2" d="M2056.9,-458.525C2113.34,-447.459 2189.7,-432.486 2248.28,-421"></path>
<polygon fill="black" stroke="black" points="2249.12,-424.402 2258.26,-419.043 2247.78,-417.532 2249.12,-424.402"></polygon>
</g>
<!-- node48 -->
<g id="node84" class="node"><title>node48</title>
<ellipse fill="none" stroke="black" cx="1967" cy="-330.8" rx="62.2808" ry="18"></ellipse>
<text text-anchor="middle" x="1967" y="-326.6" font-family="Times,serif" font-size="14.00">NUL_NODE</text>
</g>
<!-- node47&#45;&gt;node48 -->
<g id="edge72" class="edge"><title>node47-&gt;node48</title>
<path fill="none" stroke="black" stroke-dasharray="5,2" d="M1967,-384.497C1967,-376.783 1967,-367.512 1967,-358.912"></path>
<polygon fill="black" stroke="black" points="1970.5,-358.904 1967,-348.904 1963.5,-358.904 1970.5,-358.904"></polygon>
</g>
<!-- node50 -->
<g id="node88" class="node"><title>node50</title>
<ellipse fill="none" stroke="black" cx="2277" cy="-330.8" rx="169.988" ry="18"></ellipse>
<text text-anchor="middle" x="2277" y="-326.6" font-family="Times,serif" font-size="14.00">IDENTIFIER_NODE fn2 NORMAL_ID</text>
</g>
<!-- node49&#45;&gt;node50 -->
<g id="edge78" class="edge"><title>node49-&gt;node50</title>
<path fill="none" stroke="black" stroke-width="2" d="M2321.72,-384.855C2314.65,-376.468 2305.97,-366.176 2298.15,-356.896"></path>
<polygon fill="black" stroke="black" points="2300.68,-354.466 2291.56,-349.075 2295.33,-358.977 2300.68,-354.466"></polygon>
</g>
<!-- node52 -->
<g id="node92" class="node"><title>node52</title>
<ellipse fill="none" stroke="black" cx="2646" cy="-330.8" rx="179.906" ry="18"></ellipse>
<text text-anchor="middle" x="2646" y="-326.6" font-family="Times,serif" font-size="14.00">STMT_NODE FUNCTION_CALL_STMT</text>
</g>
<!-- node49&#45;&gt;node52 -->
<g id="edge88" class="edge"><title>node49-&gt;node52</title>
<path fill="none" stroke="black" stroke-dasharray="5,2" d="M2405.18,-386.178C2453.11,-375.355 2517.03,-360.923 2566.97,-349.646"></path>
<polygon fill="black" stroke="black" points="2567.78,-353.052 2576.76,-347.435 2566.23,-346.224 2567.78,-353.052"></polygon>
</g>
<!-- node51 -->
<g id="node89" class="node"><title>node51</title>
<ellipse fill="none" stroke="black" cx="2277" cy="-258.8" rx="62.2808" ry="18"></ellipse>
<text text-anchor="middle" x="2277" y="-254.6" font-family="Times,serif" font-size="14.00">NUL_NODE</text>
</g>
<!-- node50&#45;&gt;node51 -->
<g id="edge76" class="edge"><title>node50-&gt;node51</title>
<path fill="none" stroke="black" stroke-dasharray="5,2" d="M2277,-312.497C2277,-304.783 2277,-295.512 2277,-286.912"></path>
<polygon fill="black" stroke="black" points="2280.5,-286.904 2277,-276.904 2273.5,-286.904 2280.5,-286.904"></polygon>
</g>
<!-- node53 -->
<g id="node93" class="node"><title>node53</title>
<ellipse fill="none" stroke="black" cx="2646" cy="-258.8" rx="169.988" ry="18"></ellipse>
<text text-anchor="middle" x="2646" y="-254.6" font-family="Times,serif" font-size="14.00">IDENTIFIER_NODE fn3 NORMAL_ID</text>
</g>
<!-- node52&#45;&gt;node53 -->
<g id="edge86" class="edge"><title>node52-&gt;node53</title>
<path fill="none" stroke="black" stroke-width="2" d="M2646,-312.497C2646,-304.783 2646,-295.512 2646,-286.912"></path>
<polygon fill="black" stroke="black" points="2649.5,-286.904 2646,-276.904 2642.5,-286.904 2649.5,-286.904"></polygon>
</g>
<!-- node54 -->
<g id="node94" class="node"><title>node54</title>
<ellipse fill="none" stroke="black" cx="2646" cy="-186.8" rx="186.161" ry="18"></ellipse>
<text text-anchor="middle" x="2646" y="-182.6" font-family="Times,serif" font-size="14.00">NONEMPTY_RELOP_EXPR_LIST_NODE</text>
</g>
<!-- node53&#45;&gt;node54 -->
<g id="edge84" class="edge"><title>node53-&gt;node54</title>
<path fill="none" stroke="black" stroke-dasharray="5,2" d="M2646,-240.497C2646,-232.783 2646,-223.512 2646,-214.912"></path>
<polygon fill="black" stroke="black" points="2649.5,-214.904 2646,-204.904 2642.5,-214.904 2649.5,-214.904"></polygon>
</g>
<!-- node55 -->
<g id="node95" class="node"><title>node55</title>
<ellipse fill="none" stroke="black" cx="2646" cy="-114.8" rx="119.17" ry="18"></ellipse>
<text text-anchor="middle" x="2646" y="-110.6" font-family="Times,serif" font-size="14.00">CONST_VALUE_NODE 2</text>
</g>
<!-- node54&#45;&gt;node55 -->
<g id="edge82" class="edge"><title>node54-&gt;node55</title>
<path fill="none" stroke="black" stroke-width="2" d="M2646,-168.497C2646,-160.783 2646,-151.512 2646,-142.912"></path>
<polygon fill="black" stroke="black" points="2649.5,-142.904 2646,-132.904 2642.5,-142.904 2649.5,-142.904"></polygon>
</g>
<!-- node56 -->
<g id="node96" class="node"><title>node56</title>
<ellipse fill="none" stroke="black" cx="2646" cy="-42.8" rx="161.923" ry="18"></ellipse>
<text text-anchor="middle" x="2646" y="-38.6" font-family="Times,serif" font-size="14.00">IDENTIFIER_NODE b NORMAL_ID</text>
</g>
<!-- node55&#45;&gt;node56 -->
<g id="edge80" class="edge"><title>node55-&gt;node56</title>
<path fill="none" stroke="black" stroke-dasharray="5,2" d="M2646,-96.4966C2646,-88.7827 2646,-79.5125 2646,-70.9124"></path>
<polygon fill="black" stroke="black" points="2649.5,-70.9043 2646,-60.9043 2642.5,-70.9044 2649.5,-70.9043"></polygon>
</g>
</g>
</svg>
